<svg class="illustration" viewBox="0 0 260 320" fill="none" xmlns="http://www.w3.org/2000/svg">
  <!-- shadow -->
  <ellipse cx="130" cy="314" rx="70" ry="8" fill="rgba(97,206,112,0.08)"/>
  <!-- paper -->
  <rect x="20" y="0" width="220" height="300" rx="10" fill="#fff" stroke="#BDBDBD" stroke-width="1"/>
  <!-- folded corner -->
  <path d="M170 0 L220 50 L170 50 Z" fill="#F5F5F5" stroke="#BDBDBD" stroke-width="1"/>
  <!-- avatar circle placeholder -->
  <circle cx="60" cy="52" r="26" fill="#F5F5F5" stroke="#BDBDBD" stroke-width="1"/>
  <circle cx="60" cy="46" r="12" fill="#BDBDBD"/>
  <ellipse cx="60" cy="74" rx="18" ry="10" fill="#BDBDBD"/>
  <!-- name block -->
  <rect x="100" y="32" width="100" height="10" rx="3" fill="#212121"/>
  <rect x="100" y="50" width="70" height="7" rx="2" fill="#BDBDBD"/>
  <rect x="100" y="64" width="55" height="7" rx="2" fill="#BDBDBD"/>
  <!-- divider -->
  <line x1="36" y1="96" x2="224" y2="96" stroke="#BDBDBD" stroke-width="1"/>
  <!-- section label -->
  <rect x="36" y="108" width="60" height="7" rx="2" fill="#61CE70" opacity=".7"/>
  <!-- body lines -->
  <rect x="36" y="124" width="188" height="6" rx="2" fill="#F5F5F5"/>
  <rect x="36" y="136" width="160" height="6" rx="2" fill="#F5F5F5"/>
  <rect x="36" y="148" width="175" height="6" rx="2" fill="#F5F5F5"/>
  <!-- section 2 -->
  <rect x="36" y="168" width="80" height="7" rx="2" fill="#61CE70" opacity=".7"/>
  <rect x="36" y="184" width="188" height="6" rx="2" fill="#F5F5F5"/>
  <rect x="36" y="196" width="140" height="6" rx="2" fill="#F5F5F5"/>
  <rect x="36" y="208" width="165" height="6" rx="2" fill="#F5F5F5"/>
  <!-- skills pills -->
  <rect x="36" y="228" width="52" height="18" rx="9" fill="#F5F5F5" stroke="#BDBDBD" stroke-width="1"/>
  <rect x="96" y="228" width="62" height="18" rx="9" fill="#F5F5F5" stroke="#BDBDBD" stroke-width="1"/>
  <rect x="166" y="228" width="58" height="18" rx="9" fill="#61CE70" opacity=".3" stroke="#61CE70" stroke-width="1"/>
  <!-- checkmark stamp -->
  <circle cx="196" cy="268" r="20" fill="#61CE70" opacity=".12"/>
  <circle cx="196" cy="268" r="16" stroke="#61CE70" stroke-width="1.5" fill="none"/>
  <path d="M188 268 L194 274 L206 260" stroke="#61CE70" stroke-width="2.5" stroke-linecap="round" stroke-linejoin="round" fill="none"/>
</svg>
